<svg xmlns="http://www.w3.org/2000/svg" width="32.213" height="20.195" viewBox="0 0 32.213 20.195">
  <path id="Icon_awesome-behance" data-name="Icon awesome-behance" d="M12.975,14.35a4.244,4.244,0,0,0,2.707-4.139c0-3.948-2.942-4.91-6.336-4.91H0v19.82H9.608c3.6,0,6.985-1.728,6.985-5.755a4.776,4.776,0,0,0-3.618-5.017ZM4.357,8.685H8.445c1.572,0,2.986.442,2.986,2.265,0,1.683-1.1,2.36-2.656,2.36H4.357V8.685Zm4.659,13.07H4.357V16.3H9.1c1.918,0,3.132.8,3.132,2.83,0,2-1.448,2.629-3.221,2.629ZM29.065,8.294H21.028V6.342h8.037V8.294Zm3.149,9.86c0-4.245-2.483-7.785-6.985-7.785-4.373,0-7.343,3.288-7.343,7.595,0,4.469,2.813,7.533,7.343,7.533,3.428,0,5.649-1.544,6.717-4.826H28.466a3.265,3.265,0,0,1-3.115,1.874c-2.31,0-3.523-1.353-3.523-3.652H32.18C32.2,18.657,32.213,18.405,32.213,18.153Zm-10.38-1.745a3.08,3.08,0,0,1,3.272-3.065c1.98,0,2.975,1.163,3.143,3.065Z" transform="translate(0 -5.302)" opacity="0.445"/>
</svg>
