<svg xmlns="http://www.w3.org/2000/svg" width="26.096" height="26.091" viewBox="0 0 26.096 26.091">
  <path id="Icon_awesome-instagram" data-name="Icon awesome-instagram" d="M13.046,8.594a6.689,6.689,0,1,0,6.689,6.689A6.679,6.679,0,0,0,13.046,8.594Zm0,11.038a4.349,4.349,0,1,1,4.349-4.349A4.357,4.357,0,0,1,13.046,19.632ZM21.569,8.32a1.56,1.56,0,1,1-1.56-1.56A1.557,1.557,0,0,1,21.569,8.32ZM26,9.9a7.721,7.721,0,0,0-2.108-5.467,7.772,7.772,0,0,0-5.467-2.108c-2.154-.122-8.61-.122-10.765,0a7.761,7.761,0,0,0-5.467,2.1A7.747,7.747,0,0,0,.086,9.9c-.122,2.154-.122,8.61,0,10.765a7.721,7.721,0,0,0,2.108,5.467,7.782,7.782,0,0,0,5.467,2.108c2.154.122,8.61.122,10.765,0a7.721,7.721,0,0,0,5.467-2.108A7.772,7.772,0,0,0,26,20.662c.122-2.154.122-8.6,0-10.759Zm-2.783,13.07a4.4,4.4,0,0,1-2.48,2.48c-1.717.681-5.793.524-7.691.524s-5.979.151-7.691-.524a4.4,4.4,0,0,1-2.48-2.48c-.681-1.717-.524-5.793-.524-7.691S2.2,9.3,2.875,7.592a4.4,4.4,0,0,1,2.48-2.48c1.717-.681,5.793-.524,7.691-.524s5.979-.151,7.691.524a4.4,4.4,0,0,1,2.48,2.48c.681,1.717.524,5.793.524,7.691S23.9,21.262,23.217,22.974Z" transform="translate(0.005 -2.238)" opacity="0.59"/>
</svg>
